<svg width="50" height="50" viewBox="0 0 50 50" fill="none" xmlns="http://www.w3.org/2000/svg">
<rect width="50" height="50" fill="#EBFF00" fill-opacity="0.4"/>
<path d="M33.764 31.348C33.836 31.492 33.932 32.044 34.052 33.004C34.196 33.964 34.268 34.78 34.268 35.452C34.268 36.1 34.232 36.616 34.16 37H17.06L16.952 35.74C18.08 35.332 19.1 35.056 20.012 34.912C19.868 25.456 19.748 18.484 19.652 13.996C19.028 13.9 17.972 13.612 16.484 13.132L16.664 11.8H25.34C25.748 12.472 25.952 13.18 25.952 13.924C24.656 13.972 23.72 14.008 23.144 14.032C23.096 18.64 23.048 22.84 23 26.632C22.976 30.4 22.952 33.052 22.928 34.588H30.812L31.676 31.168C32.876 31.168 33.572 31.228 33.764 31.348ZM40.9207 36.892C40.2967 37.036 39.6847 37.108 39.0847 37.108C38.5087 37.108 37.9327 37.072 37.3567 37C37.2127 36.328 37.1407 35.656 37.1407 34.984C37.1407 34.288 37.1647 33.772 37.2127 33.436C37.7407 33.316 38.2927 33.256 38.8687 33.256C39.4687 33.256 40.1047 33.28 40.7767 33.328C40.9207 33.952 40.9927 34.564 40.9927 35.164C40.9927 35.74 40.9687 36.316 40.9207 36.892Z" fill="white"/>
<path d="M33.764 31.348L34.6584 30.9008L34.5326 30.6491L34.294 30.5L33.764 31.348ZM34.052 33.004L33.0597 33.128L33.0612 33.1402L33.0631 33.1523L34.052 33.004ZM34.16 37V38H34.9899L35.1429 37.1843L34.16 37ZM17.06 37L16.0637 37.0854L16.142 38H17.06V37ZM16.952 35.74L16.6119 34.7996L15.8901 35.0607L15.9557 35.8254L16.952 35.74ZM20.012 34.912L20.168 35.8998L21.0251 35.7644L21.0119 34.8968L20.012 34.912ZM19.652 13.996L20.6518 13.9746L20.6338 13.1353L19.8041 13.0076L19.652 13.996ZM16.484 13.132L15.493 12.9981L15.381 13.8269L16.177 14.0837L16.484 13.132ZM16.664 11.8V10.8H15.79L15.673 11.6661L16.664 11.8ZM25.34 11.8L26.1948 11.281L25.9027 10.8H25.34V11.8ZM25.952 13.924L25.989 14.9233L26.952 14.8876V13.924H25.952ZM23.144 14.032L23.1024 13.0329L22.1539 13.0724L22.1441 14.0216L23.144 14.032ZM23 26.632L22.0001 26.6193L22 26.6256L23 26.632ZM22.928 34.588L21.9281 34.5724L21.9123 35.588H22.928V34.588ZM30.812 34.588V35.588H31.5908L31.7815 34.8329L30.812 34.588ZM31.676 31.168V30.168H30.8972L30.7065 30.9231L31.676 31.168ZM32.8696 31.7952C32.8327 31.7215 32.831 31.6867 32.8504 31.7671C32.8644 31.825 32.8827 31.9142 32.9048 32.0413C32.9488 32.2944 33.0005 32.6543 33.0597 33.128L35.0443 32.88C34.9835 32.3937 34.9272 31.9976 34.8752 31.6987C34.8493 31.5498 34.8226 31.414 34.7946 31.2979C34.772 31.2043 34.7313 31.0465 34.6584 30.9008L32.8696 31.7952ZM33.0631 33.1523C33.2026 34.0828 33.268 34.8461 33.268 35.452H35.268C35.268 34.7139 35.1894 33.8452 35.0409 32.8557L33.0631 33.1523ZM33.268 35.452C33.268 36.0728 33.2328 36.519 33.1771 36.8157L35.1429 37.1843C35.2312 36.713 35.268 36.1272 35.268 35.452H33.268ZM34.16 36H17.06V38H34.16V36ZM18.0563 36.9146L17.9483 35.6546L15.9557 35.8254L16.0637 37.0854L18.0563 36.9146ZM17.2921 36.6804C18.3771 36.288 19.3341 36.0314 20.168 35.8998L19.856 33.9242C18.8659 34.0806 17.7829 34.376 16.6119 34.7996L17.2921 36.6804ZM21.0119 34.8968C20.8679 25.4404 20.7478 18.4659 20.6518 13.9746L18.6522 14.0174C18.7482 18.5021 18.8681 25.4716 19.0121 34.9272L21.0119 34.8968ZM19.8041 13.0076C19.2679 12.9251 18.2807 12.6608 16.791 12.1803L16.177 14.0837C17.6633 14.5632 18.7881 14.8749 19.4999 14.9844L19.8041 13.0076ZM17.475 13.2659L17.655 11.9339L15.673 11.6661L15.493 12.9981L17.475 13.2659ZM16.664 12.8H25.34V10.8H16.664V12.8ZM24.4852 12.319C24.8038 12.8438 24.952 13.3735 24.952 13.924H26.952C26.952 12.9865 26.6922 12.1002 26.1948 11.281L24.4852 12.319ZM25.915 12.9247C24.6189 12.9727 23.6809 13.0088 23.1024 13.0329L23.1856 15.0311C23.7591 15.0072 24.6931 14.9713 25.989 14.9233L25.915 12.9247ZM22.1441 14.0216C22.0961 18.629 22.0481 22.8282 22.0001 26.6193L23.9999 26.6447C24.0479 22.8518 24.0959 18.651 24.1439 14.0424L22.1441 14.0216ZM22 26.6256C21.976 30.3937 21.952 33.0415 21.9281 34.5724L23.9279 34.6036C23.952 33.0625 23.976 30.4063 24 26.6384L22 26.6256ZM22.928 35.588H30.812V33.588H22.928V35.588ZM31.7815 34.8329L32.6455 31.4129L30.7065 30.9231L29.8425 34.3431L31.7815 34.8329ZM31.676 32.168C32.2645 32.168 32.7058 32.1829 33.0121 32.2093C33.1662 32.2226 33.2673 32.2373 33.3268 32.2493C33.4139 32.267 33.3454 32.2656 33.234 32.196L34.294 30.5C34.0866 30.3704 33.8591 30.3165 33.7242 30.2892C33.5617 30.2562 33.3778 30.2334 33.1839 30.2167C32.7942 30.1831 32.2875 30.168 31.676 30.168V32.168ZM40.9207 36.892L41.1455 37.8664L41.8566 37.7023L41.9172 36.975L40.9207 36.892ZM37.3567 37L36.3789 37.2095L36.5277 37.9042L37.2327 37.9923L37.3567 37ZM37.2127 33.436L36.9911 32.4609L36.3201 32.6134L36.2227 33.2946L37.2127 33.436ZM40.7767 33.328L41.7511 33.1031L41.5849 32.3832L40.8479 32.3305L40.7767 33.328ZM40.6958 35.9176C40.1406 36.0457 39.6041 36.108 39.0847 36.108V38.108C39.7653 38.108 40.4527 38.0263 41.1455 37.8664L40.6958 35.9176ZM39.0847 36.108C38.5505 36.108 38.0159 36.0746 37.4807 36.0077L37.2327 37.9923C37.8495 38.0694 38.4669 38.108 39.0847 38.108V36.108ZM38.3345 36.7905C38.2049 36.1858 38.1407 35.584 38.1407 34.984H36.1407C36.1407 35.728 36.2205 36.4702 36.3789 37.2095L38.3345 36.7905ZM38.1407 34.984C38.1407 34.297 38.1652 33.8398 38.2026 33.5774L36.2227 33.2946C36.1642 33.7042 36.1407 34.279 36.1407 34.984H38.1407ZM37.4343 34.4111C37.8851 34.3087 38.3625 34.256 38.8687 34.256V32.256C38.2228 32.256 37.5962 32.3233 36.9911 32.4609L37.4343 34.4111ZM38.8687 34.256C39.4422 34.256 40.0543 34.279 40.7054 34.3255L40.8479 32.3305C40.155 32.281 39.4951 32.256 38.8687 32.256V34.256ZM39.8023 33.5529C39.9304 34.108 39.9927 34.6446 39.9927 35.164H41.9927C41.9927 34.4834 41.911 33.796 41.7511 33.1031L39.8023 33.5529ZM39.9927 35.164C39.9927 35.7122 39.9698 36.2605 39.9241 36.809L41.9172 36.975C41.9675 36.3715 41.9927 35.7678 41.9927 35.164H39.9927Z" fill="black"/>
</svg>
