<svg width="143" height="50" viewBox="0 0 143 50" fill="none" xmlns="http://www.w3.org/2000/svg">
<path d="M34.764 31.348C34.836 31.492 34.932 32.044 35.052 33.004C35.196 33.964 35.268 34.78 35.268 35.452C35.268 36.1 35.232 36.616 35.16 37H18.06L17.952 35.74C19.08 35.332 20.1 35.056 21.012 34.912C20.868 25.456 20.748 18.484 20.652 13.996C20.028 13.9 18.972 13.612 17.484 13.132L17.664 11.8H26.34C26.748 12.472 26.952 13.18 26.952 13.924C25.656 13.972 24.72 14.008 24.144 14.032C24.096 18.64 24.048 22.84 24 26.632C23.976 30.4 23.952 33.052 23.928 34.588H31.812L32.676 31.168C33.876 31.168 34.572 31.228 34.764 31.348ZM52.0727 25.228L51.8927 34.516C52.9247 34.588 53.9567 34.756 54.9887 35.02L54.9167 36.28C54.5327 36.472 53.8367 36.688 52.8287 36.928C51.8447 37.144 50.8727 37.252 49.9127 37.252C49.4807 36.388 49.2407 35.56 49.1927 34.768C46.4567 36.568 44.5367 37.468 43.4327 37.468C41.7287 37.468 40.3607 37.012 39.3287 36.1C38.2967 35.188 37.7807 33.916 37.7807 32.284C37.7807 28.516 40.0847 26.572 44.6927 26.452C47.3807 26.38 48.7367 26.344 48.7607 26.344L48.7247 25.12C48.6767 23.464 48.3647 22.276 47.7887 21.556C47.2127 20.812 46.1807 20.44 44.6927 20.44C44.0687 20.44 43.3967 20.584 42.6767 20.872L41.8127 24.472C41.6927 24.496 41.4887 24.508 41.2007 24.508L39.7247 24.4C39.3407 23.368 39.1367 21.94 39.1127 20.116C39.5687 19.876 40.6127 19.516 42.2447 19.036C43.8767 18.532 44.9207 18.28 45.3767 18.28C47.8247 18.28 49.5527 18.82 50.5607 19.9C51.5687 20.98 52.0727 22.756 52.0727 25.228ZM44.2247 35.02C44.9207 35.02 46.5287 34.24 49.0487 32.68L48.8687 28.18C47.2367 28.324 45.8687 28.456 44.7647 28.576C43.6607 28.696 42.7727 29.02 42.1007 29.548C41.4287 30.052 41.0927 30.856 41.0927 31.96C41.0927 34 42.1367 35.02 44.2247 35.02ZM61.2909 12.808C61.2909 15.496 61.0029 17.416 60.4269 18.568C60.1389 18.664 59.7909 18.712 59.3829 18.712L58.9869 18.676C59.0349 18.364 59.0589 17.884 59.0589 17.236C59.0589 15.196 58.5429 13 57.5109 10.648C58.0389 10.528 58.5909 10.468 59.1669 10.468C59.7669 10.468 60.4029 10.492 61.0749 10.54C61.2189 11.212 61.2909 11.968 61.2909 12.808ZM72.7058 35.272C74.7218 35.272 76.0778 34.648 76.7738 33.4C77.4938 32.128 77.8538 30.328 77.8538 28C77.8538 24.304 77.0378 21.988 75.4058 21.052C74.7338 20.668 73.7858 20.476 72.5618 20.476C71.3618 20.476 70.2218 20.728 69.1418 21.232C68.1818 23.08 67.7018 25.228 67.7018 27.676C67.7018 30.028 68.0138 31.84 68.6378 33.112C69.3578 34.552 70.7138 35.272 72.7058 35.272ZM64.3898 28C64.3898 24.952 65.0858 22.576 66.4778 20.872C67.8698 19.144 70.0178 18.28 72.9218 18.28C75.8258 18.28 77.9258 19.072 79.2218 20.656C80.5178 22.216 81.1658 24.532 81.1658 27.604C81.1658 30.676 80.4698 33.088 79.0778 34.84C77.7098 36.592 75.6218 37.468 72.8138 37.468C70.0058 37.468 67.8938 36.652 66.4778 35.02C65.0858 33.388 64.3898 31.048 64.3898 28ZM86.4248 34.768L86.1368 21.196H83.3648L83.2568 19.936C83.4968 19.768 84.1928 19.456 85.3448 19L88.2968 14.392C88.7768 14.44 89.1488 14.56 89.4128 14.752L89.3768 18.712C91.1768 18.712 92.6528 18.832 93.8048 19.072C93.8048 19.72 93.6008 20.428 93.1928 21.196H89.3048C89.2568 24.076 89.2088 28.444 89.1608 34.3C90.5048 34.372 91.8488 34.612 93.1928 35.02L93.1568 36.28C92.8208 36.496 91.9568 36.748 90.5648 37.036C89.1968 37.324 88.0688 37.468 87.1808 37.468C87.0608 37.276 86.9048 36.868 86.7128 36.244C86.5208 35.596 86.4248 35.104 86.4248 34.768ZM105.42 34.984C106.476 34.984 108.132 34.48 110.388 33.472C110.844 34.096 111.084 34.648 111.108 35.128C109.884 35.848 108.684 36.412 107.508 36.82C106.332 37.228 105.492 37.432 104.988 37.432C102.204 37.432 100.08 36.604 98.6165 34.948C97.1525 33.268 96.4205 30.928 96.4205 27.928C96.4205 24.928 97.1285 22.576 98.5445 20.872C99.9845 19.144 102.132 18.28 104.988 18.28C107.196 18.28 108.876 19.072 110.028 20.656C111.204 22.24 111.792 24.364 111.792 27.028C111.6 27.364 111.444 27.592 111.324 27.712L99.7325 27.532C99.7565 29.956 100.176 31.804 100.992 33.076C101.832 34.348 103.308 34.984 105.42 34.984ZM108.516 25.48C108.516 23.896 108.228 22.672 107.652 21.808C107.076 20.92 106.116 20.476 104.772 20.476C103.428 20.476 102.228 20.728 101.172 21.232C100.452 22.672 99.9965 24.148 99.8045 25.66C101.7 25.636 104.604 25.576 108.516 25.48ZM119.558 10.252C120.302 10.252 120.83 10.276 121.142 10.324C121.142 11.164 120.986 12.124 120.674 13.204C120.458 27.364 120.35 34.48 120.35 34.552L123.374 34.84C123.374 35.512 123.17 36.232 122.762 37H114.482L114.374 35.74C115.478 35.356 116.558 35.068 117.614 34.876L117.254 13.096C115.934 13.024 114.878 12.88 114.086 12.664L114.23 10.792C115.454 10.432 117.23 10.252 119.558 10.252Z" fill="white"/>
</svg>
